#!OML:ASF G:\JayActor3\Patient Classification 1\Patient 1\Session 5\male.ASF
:FULLY-SPECIFIED
:DEGREES
740
root 26.4471 16.5061 -5.43697 712.145 85.2791 714.083
lowerback 0.76525 -0.493214 0.00281473
upperback 1.92766 -0.613676 -1.68664
thorax 1.52703 -0.282979 -1.73337
lowerneck -9.29696 0.344031 1.7568
upperneck 14.2002 -0.0133926 2.06498
head 5.82675 0.285199 0.365049
rclavicle 2.50966e-015 -1.74931e-014
rhumerus -32.5761 -5.2997 -87.3616
rradius 28.4522
rwrist 1.27734
rhand -18.6578 -8.48791
rfingers 7.12502
rthumb 7.63548 -38.3301
lclavicle 2.50966e-015 -1.74931e-014
lhumerus -29.6402 7.776 81.1194
lradius 23.2355
lwrist 14.9964
lhand -17.398 11.9995
lfingers 7.12502
lthumb 8.85133 41.7938
rfemur -12.6926 0.766838 20.5734
rtibia 68.7538
rfoot -5.13746 -16.4671
rtoes 4.24496
lfemur -6.41397 17.4753 -23.478
ltibia 20.913
lfoot -13.8541 -3.97506
ltoes -1.14048
741
root 26.5402 16.4948 -5.44841 712.561 85.3356 714.54
lowerback 0.864611 -0.526122 -0.0352126
upperback 1.97404 -0.656931 -1.68029
thorax 1.51806 -0.304673 -1.70505
lowerneck -9.29252 0.34097 1.74456
upperneck 14.1273 -0.00716123 2.00647
head 5.80295 0.281319 0.34877
rclavicle 3.40419e-015 -5.56597e-015
rhumerus -32.4867 -5.13011 -87.4621
rradius 28.6914
rwrist 1.14854
rhand -18.633 -8.51696
rfingers 7.12502
rthumb 7.65935 -38.3583
lclavicle 3.40419e-015 -5.56597e-015
lhumerus -29.4085 7.41164 81.3257
lradius 23.6901
lwrist 15.3116
lhand -17.4818 11.973
lfingers 7.12502
lthumb 8.77043 41.7708
rfemur -13.6172 1.1262 20.6189
rtibia 68.7453
rfoot -7.06426 -16.0883
rtoes 2.87564
lfemur -6.16655 17.2918 -23.5256
ltibia 21.2161
lfoot -14.0507 -3.80174
ltoes -0.579138
742
root 26.6325 16.4831 -5.45904 712.818 85.3882 714.829
lowerback 0.95489 -0.555647 -0.06634
upperback 2.01901 -0.695916 -1.66434
thorax 1.51297 -0.324267 -1.67074
lowerneck -9.2933 0.337806 1.732
upperneck 14.056 -0.00149679 1.94949
head 5.78055 0.277349 0.333014
rclavicle -5.71506e-016 8.74653e-015
rhumerus -32.4058 -4.94681 -87.557
rradius 28.9454
rwrist 1.01118
rhand -18.6078 -8.54088
rfingers 7.12502
rthumb 7.68372 -38.3813
lclavicle -5.71506e-016 8.74653e-015
lhumerus -29.1799 7.05229 81.5381
lradius 24.1543
lwrist 15.6333
lhand -17.5585 11.9646
lfingers 7.12502
lthumb 8.69644 41.7654
rfemur -14.5377 1.51725 20.6823
rtibia 68.6166
rfoot -8.9079 -15.7664
rtoes 1.63148
lfemur -5.94488 17.0343 -23.572
ltibia 21.5392
lfoot -14.2443 -3.53332
ltoes -0.129122
743
root 26.7243 16.4709 -5.46884 713.018 85.4405 715.049
lowerback 1.03744 -0.582595 -0.100423
upperback 2.06233 -0.731611 -1.6418
thorax 1.51079 -0.342357 -1.628
lowerneck -9.29368 0.334403 1.71562
upperneck 13.9804 0.00330653 1.90003
head 5.75675 0.273292 0.320185
rclavicle -1.20513e-014 -4.77083e-015
rhumerus -32.3305 -4.75463 -87.6458
rradius 29.21
rwrist 0.860918
rhand -18.5848 -8.56403
rfingers 7.12502
rthumb 7.70594 -38.4036
lclavicle -1.20513e-014 -4.77083e-015
lhumerus -28.9525 6.70473 81.7543
lradius 24.6213
lwrist 15.9686
lhand -17.6216 11.941
lfingers 7.12502
lthumb 8.63556 41.7444
rfemur -15.4543 1.93231 20.7514
rtibia 68.3725
rfoot -10.6352 -15.525
rtoes 0.57466
lfemur -5.74673 16.7078 -23.6265
ltibia 21.8773
lfoot -14.4593 -3.18536
ltoes 0.229986
744
root 26.8153 16.4581 -5.4778 713.046 85.4973 715.086
lowerback 1.1144 -0.609619 -0.12953
upperback 2.10348 -0.76765 -1.61027
thorax 1.50965 -0.360694 -1.57883
lowerneck -9.30168 0.331077 1.69847
upperneck 13.909 0.00730886 1.85535
head 5.7356 0.269304 0.308976
rclavicle -2.5842e-015 3.97569e-015
rhumerus -32.2622 -4.55248 -87.7281
rradius 29.4842
rwrist 0.701386
rhand -18.5672 -8.58337
rfingers 7.12502
rthumb 7.72291 -38.4223
lclavicle -2.5842e-015 3.97569e-015
lhumerus -28.7345 6.36493 81.9742
lradius 25.1022
lwrist 16.3155
lhand -17.662 11.8962
lfingers 7.12502
lthumb 8.59656 41.7012
rfemur -16.3635 2.36098 20.8342
rtibia 68.0171
rfoot -12.2195 -15.3786
rtoes -0.184299
lfemur -5.56703 16.3271 -23.6781
ltibia 22.223
lfoot -14.7131 -2.77644
ltoes 0.415129
745
root 26.9057 16.4446 -5.48599 713.002 85.5614 715.044
lowerback 1.18798 -0.636679 -0.159996
upperback 2.14231 -0.80387 -1.57477
thorax 1.50816 -0.379223 -1.5248
lowerneck -9.30504 0.328447 1.68263
upperneck 13.8327 0.011115 1.81843
head 5.71212 0.265829 0.299962
rclavicle 2.46493e-014 3.18055e-015
rhumerus -32.201 -4.34679 -87.8058
rradius 29.7617
rwrist 0.530453
rhand -18.5568 -8.60151
rfingers 7.12502
rthumb 7.73296 -38.4401
lclavicle 2.46493e-014 3.18055e-015
lhumerus -28.5287 6.02835 82.1953
lradius 25.5968
lwrist 16.671
lhand -17.6759 11.8439
lfingers 7.12502
lthumb 8.58308 41.6495
rfemur -17.2607 2.79221 20.9185
rtibia 67.5573
rfoot -13.6615 -15.331
rtoes -0.794669
lfemur -5.39779 15.9119 -23.7315
ltibia 22.5687
lfoot -15.0149 -2.33649
ltoes 0.449975
746
root 26.9957 16.4306 -5.4935 712.908 85.6332 714.948
lowerback 1.25935 -0.664497 -0.192947
upperback 2.18094 -0.841152 -1.53646
thorax 1.50786 -0.398359 -1.46648
lowerneck -9.30949 0.326932 1.67062
upperneck 13.7565 0.0152046 1.7857
head 5.6889 0.263059 0.291676
rclavicle 8.94531e-015 8.74653e-015
rhumerus -32.1442 -4.13868 -87.8794
rradius 30.0416
rwrist 0.345995
rhand -18.5531 -8.62565
rfingers 7.12502
rthumb 7.73649 -38.4641
lclavicle 8.94531e-015 8.74653e-015
lhumerus -28.3298 5.69689 82.4179
lradius 26.0979
lwrist 17.0337
lhand -17.6803 11.7779
lfingers 7.12502
lthumb 8.57882 41.5837
rfemur -18.1402 3.21624 21.0004
rtibia 66.9987
rfoot -14.9835 -15.3699
rtoes -1.2367
lfemur -5.22762 15.4808 -23.7841
ltibia 22.9041
lfoot -15.3629 -1.89017
ltoes 0.348489
747
root 27.0856 16.4163 -5.50049 712.731 85.7068 714.77
lowerback 1.33273 -0.690889 -0.22164
upperback 2.2175 -0.876638 -1.49689
thorax 1.50439 -0.416581 -1.40917
lowerneck -9.29401 0.327645 1.66598
upperneck 13.6678 0.0214447 1.75672
head 5.65843 0.261805 0.283445
rclavicle -3.02153e-014 -5.1684e-015
rhumerus -32.0953 -3.93271 -87.9493
rradius 30.317
rwrist 0.152327
rhand -18.5533 -8.64156
rfingers 7.12502
rthumb 7.73629 -38.48
lclavicle -3.02153e-014 -5.1684e-015
lhumerus -28.1496 5.35799 82.6429
lradius 26.6154
lwrist 17.4025
lhand -17.6742 11.7167
lfingers 7.12502
lthumb 8.58474 41.5222
rfemur -18.9955 3.6355 21.0818
rtibia 66.3465
rfoot -16.1766 -15.491
rtoes -1.61874
lfemur -5.04391 15.0531 -23.8282
ltibia 23.2195
lfoot -15.7493 -1.45669
ltoes 0.162762
748
root 27.1758 16.4022 -5.5071 712.631 85.7829 714.674
lowerback 1.40808 -0.716251 -0.25801
upperback 2.25193 -0.9108 -1.45898
thorax 1.49785 -0.434258 -1.34916
lowerneck -9.25701 0.332858 1.66553
upperneck 13.5671 0.0333144 1.73237
head 5.62052 0.263665 0.276334
rclavicle 3.27995e-015 -1.31198e-014
rhumerus -32.053 -3.72926 -88.0149
rradius 30.5808
rwrist -0.0452352
rhand -18.5556 -8.64981
rfingers 7.12502
rthumb 7.73414 -38.4884
lclavicle 3.27995e-015 -1.31198e-014
lhumerus -27.9875 5.00871 82.8719
lradius 27.142
lwrist 17.7794
lhand -17.6611 11.661
lfingers 7.12502
lthumb 8.59735 41.466
rfemur -19.8239 4.04676 21.1468
rtibia 65.6071
rfoot -17.2317 -15.6802
rtoes -1.97835
lfemur -4.83594 14.6427 -23.8741
ltibia 23.5035
lfoot -16.1536 -1.05401
ltoes -0.0284617
